<svg id="Layer_1" enable-background="new 0 0 512 512" height="512" viewBox="0 0 512 512" width="512" xmlns="http://www.w3.org/2000/svg"><g><g><g><path d="m460.381 384h-432v-208c0-17.673 14.327-32 32-32h368c17.673 0 32 14.327 32 32z" fill="#463c4b"/></g><g><path d="m428.381 384h-400v-208c0-17.673 14.327-32 32-32h336c17.673 0 32 14.327 32 32z" fill="#555a6e"/></g><g><path d="m60.381 424h368c17.673 0 32-14.327 32-32v-8h-432v8c0 17.673 14.327 32 32 32z" fill="#a5c3dc"/></g><g><path d="m396.381 424h-336c-17.673 0-32-14.327-32-32v-8h400v8c0 17.673-14.327 32-32 32z" fill="#d7e6f0"/></g><g><path d="m196.381 424h72v32h-72z" fill="#a5c3dc"/></g><g><path d="m196.381 440h48v16h-48z" fill="#d7e6f0"/></g><g><path d="m308.381 480h-160v-8c0-8.837 7.163-16 16-16h128c8.837 0 16 7.163 16 16z" fill="#d7e6f0"/></g><g><path d="m308.381 480h-48v-8c0-8.837 7.163-16 16-16h16c8.837 0 16 7.163 16 16z" fill="#a5c3dc"/></g></g><g><path d="m116.381 316c-3.071 0-6.143-1.172-8.485-3.515l-40-40c-4.687-4.687-4.687-12.284 0-16.971l40-40c4.686-4.686 12.285-4.686 16.971 0 4.687 4.687 4.687 12.284 0 16.971l-31.515 31.515 31.515 31.515c4.687 4.687 4.687 12.284 0 16.971-2.344 2.342-5.415 3.514-8.486 3.514z" fill="#d7e6f0"/></g><g><path d="m228.381 316c-3.071 0-6.143-1.172-8.485-3.515-4.687-4.687-4.687-12.284 0-16.971l31.514-31.514-31.515-31.515c-4.687-4.687-4.687-12.284 0-16.971 4.686-4.686 12.285-4.686 16.971 0l40 40c4.687 4.687 4.687 12.284 0 16.971l-40 40c-2.343 2.343-5.414 3.515-8.485 3.515z" fill="#d7e6f0"/></g><g><path d="m156.377 316.003c-1.483 0-2.991-.276-4.453-.861-6.153-2.461-9.146-9.445-6.685-15.599l32-80c2.461-6.152 9.444-9.147 15.599-6.685 6.153 2.461 9.146 9.445 6.685 15.599l-32 80c-1.877 4.691-6.383 7.546-11.146 7.546z" fill="#d7e6f0"/></g><g><g><path d="m287.714 181.81h-34.571c-31.771 0-57.618-25.848-57.618-57.619v-11.523c0-19.063 15.509-34.571 34.571-34.571h23.047v23.047h-23.047c-6.354 0-11.524 5.17-11.524 11.524v11.523c0 19.063 15.509 34.572 34.571 34.572h34.571z" fill="#fbbe18"/></g><g><path d="m437.524 124.19v-69.142h-184.381v69.143c0 47.013 35.19 85.804 80.667 91.475v78.716c0 19.094-15.478 34.571-34.572 34.571-12.729 0-23.048 10.319-23.048 23.048h138.286c0-12.729-10.319-23.048-23.048-23.048-19.093 0-34.572-15.478-34.572-34.571v-78.716c45.477-5.672 80.668-44.463 80.668-91.476z" fill="#fbbe18"/></g><g><path d="m449.048 55.048h-207.429c-6.364 0-11.524-5.159-11.524-11.524 0-6.364 5.159-11.524 11.524-11.524h207.429c6.364 0 11.524 5.159 11.524 11.524-.001 6.364-5.16 11.524-11.524 11.524z" fill="#fbbe18"/></g><g><path d="m449.048 32h-103.715c6.365 0 11.524 5.159 11.524 11.524 0 6.364-5.159 11.524-11.524 11.524h103.714c6.365 0 11.524-5.16 11.524-11.524 0-6.365-5.159-11.524-11.523-11.524z" fill="#f68820"/></g><g><path d="m437.524 124.19v-69.142h-92.19-92.19v23.047h92.19v46.095c0 34.104-18.566 63.909-46.095 79.856 10.418 6.034 22.101 10.022 34.572 11.6v23.782h11.524v112.572h69.143c0-12.729-10.319-23.048-23.048-23.048-19.093 0-34.572-15.478-34.572-34.571v-78.716c45.475-5.671 80.666-44.462 80.666-91.475z" fill="#f68820"/></g><g><path d="m437.523 181.81h-34.571v-23.047h34.571c19.063 0 34.572-15.509 34.572-34.572v-11.523c0-6.354-5.17-11.524-11.524-11.524h-23.048v-23.048h23.048c19.063 0 34.571 15.509 34.571 34.571v11.523c.001 31.772-25.847 57.62-57.619 57.62z" fill="#f68820"/></g><g><circle cx="299.238" cy="121.31" fill="#fbd301" r="20.167"/></g></g></g></svg>